# Blender v2.74 (sub 0) OBJ File: 'staircase.blend'
# www.blender.org
mtllib staircase.mtl
o ladder_Куб
v -3.461462 -0.328680 -9.858091
v -3.467257 -0.364680 -9.822560
v -3.502787 -0.328680 -9.828355
v -3.590974 -0.328680 -9.287611
v -3.555443 -0.364680 -9.281816
v -3.561238 -0.328680 -9.246285
v -3.502787 0.145388 -9.828355
v -3.467257 0.181388 -9.822560
v -3.461462 0.145388 -9.858091
v -3.590974 0.145388 -9.287611
v -3.561238 0.145388 -9.246285
v -3.555443 0.181388 -9.281816
v 1.811161 -0.328680 -8.961735
v 1.775631 -0.364680 -8.967529
v 1.781425 -0.328680 -9.003060
v 1.722975 -0.328680 -8.420991
v 1.681649 -0.328680 -8.391254
v 1.687444 -0.364680 -8.426785
v 1.775631 0.181388 -8.967529
v 1.811161 0.145388 -8.961735
v 1.781425 0.145388 -9.003060
v 1.687444 0.181388 -8.426785
v 1.681649 0.145388 -8.391254
v 1.722975 0.145388 -8.420991
v -2.904891 -0.976564 -13.335942
v -2.868891 -0.964000 -13.265993
v -2.904891 -1.000000 -13.327269
v -2.904891 -1.000000 10.311399
v -2.868891 -0.964000 10.334076
v -2.904891 -0.976564 10.374725
v -3.569445 -1.000000 10.311399
v -3.569445 -0.976564 10.374725
v -3.605445 -0.964000 10.334076
v -3.605444 -0.964000 -13.265993
v -3.569444 -0.976564 -13.335942
v -3.569444 -1.000000 -13.327269
v -2.868890 -0.231069 -12.411386
v -2.904890 -0.218505 -12.452035
v -2.904890 -0.195069 -12.388708
v -2.904892 -0.195069 11.249959
v -2.904892 -0.218505 11.258633
v -2.868892 -0.231069 11.188684
v -3.569445 -0.195069 11.249959
v -3.605445 -0.231069 11.188684
v -3.569445 -0.218505 11.258633
v -3.569444 -0.218505 -12.452035
v -3.605444 -0.231069 -12.411386
v -3.569444 -0.195069 -12.388708
v 1.605493 -0.842930 -13.343094
v 1.642172 -0.831493 -13.273304
v 1.605573 -0.866503 -13.334799
v 1.834931 -1.246796 10.299697
v 1.871155 -1.211165 10.322600
v 1.835549 -1.224382 10.363389
v 1.170409 -1.246796 10.306146
v 1.171027 -1.224382 10.369838
v 1.134636 -1.211165 10.329747
v 0.905653 -0.831493 -13.266157
v 0.940971 -0.842931 -13.336645
v 0.941051 -0.866503 -13.328350
v 1.650578 -0.112406 -12.407057
v 1.614188 -0.099189 -12.447147
v 1.614806 -0.076775 -12.383455
v 1.844163 -0.457068 11.251040
v 1.844243 -0.480641 11.259336
v 1.879561 -0.492077 11.188848
v 1.179641 -0.457068 11.257489
v 1.143043 -0.492077 11.195994
v 1.179722 -0.480640 11.265784
v 0.949665 -0.099189 -12.440699
v 0.914059 -0.112406 -12.399910
v 0.950283 -0.076775 -12.377007
v 1.766169 -0.365590 -5.802256
v 1.766169 -0.401590 -5.838256
v 1.802169 -0.365590 -5.838256
v 1.802169 0.182298 -5.838256
v 1.766169 0.218298 -5.838256
v 1.766169 0.182298 -5.802256
v 1.766169 -0.365590 -6.348324
v 1.802169 -0.365590 -6.312325
v 1.766169 -0.401590 -6.312325
v 1.766169 0.182298 -6.348324
v 1.766169 0.218298 -6.312325
v 1.802169 0.182298 -6.312325
v -3.545982 -0.401590 -5.838256
v -3.545982 -0.365590 -5.802256
v -3.581982 -0.365590 -5.838256
v -3.581982 0.182298 -5.838256
v -3.545982 0.182298 -5.802256
v -3.545982 0.218298 -5.838256
v -3.545982 -0.365590 -6.348324
v -3.545982 -0.401590 -6.312325
v -3.581982 -0.365590 -6.312325
v -3.581982 0.182298 -6.312325
v -3.545982 0.218298 -6.312325
v -3.545982 0.182298 -6.348324
v -3.545982 0.182298 -3.521524
v -3.581982 0.182298 -3.485524
v -3.545982 0.218298 -3.485524
v -3.545982 -0.401590 -3.485524
v -3.581982 -0.365590 -3.485524
v -3.545982 -0.365590 -3.521524
v -3.545982 0.218298 -3.011456
v -3.581982 0.182298 -3.011456
v -3.545982 0.182298 -2.975456
v -3.545982 -0.401590 -3.011456
v -3.545982 -0.365590 -2.975456
v -3.581982 -0.365590 -3.011456
v 1.766169 0.218298 -3.485524
v 1.802169 0.182298 -3.485524
v 1.766169 0.182298 -3.521524
v 1.802169 -0.365590 -3.485524
v 1.766169 -0.401590 -3.485524
v 1.766169 -0.365590 -3.521524
v 1.802169 0.182298 -3.011456
v 1.766169 0.218298 -3.011456
v 1.766169 0.182298 -2.975456
v 1.802169 -0.365590 -3.011456
v 1.766169 -0.365590 -2.975456
v 1.766169 -0.401590 -3.011456
v 1.765816 -0.365590 0.390517
v 1.726451 -0.365590 0.422803
v 1.729991 -0.401590 0.386977
v 1.765816 0.182298 0.390517
v 1.729991 0.218298 0.386977
v 1.726451 0.182298 0.422803
v 1.776605 -0.401590 -0.084793
v 1.780145 -0.365590 -0.120619
v 1.812430 -0.365590 -0.081254
v 1.776605 0.218298 -0.084793
v 1.812430 0.182298 -0.081254
v 1.780145 0.182298 -0.120619
v -3.556418 -0.401590 -0.135354
v -3.559958 -0.365590 -0.099528
v -3.592243 -0.365590 -0.138893
v -3.592243 0.182298 -0.138894
v -3.559958 0.182298 -0.099528
v -3.556418 0.218298 -0.135354
v -3.506264 -0.365590 -0.642950
v -3.509804 -0.401590 -0.607125
v -3.545629 -0.365590 -0.610664
v -3.506264 0.182298 -0.642950
v -3.545629 0.182298 -0.610664
v -3.509804 0.218298 -0.607125
v -3.581982 0.182298 2.613243
v -3.545982 0.218298 2.613243
v -3.545982 0.182298 2.577243
v -3.581982 -0.365590 2.613243
v -3.545982 -0.365590 2.577243
v -3.545982 -0.401590 2.613243
v -3.545982 0.182298 3.123311
v -3.545982 0.218298 3.087311
v -3.581982 0.182298 3.087311
v -3.581982 -0.365590 3.087311
v -3.545982 -0.401590 3.087311
v -3.545982 -0.365590 3.123311
v 1.766169 0.182298 2.577243
v 1.766169 0.218298 2.613243
v 1.802169 0.182298 2.613243
v 1.802169 -0.365590 2.613243
v 1.766169 -0.401590 2.613243
v 1.766169 -0.365590 2.577243
v 1.766169 0.218298 3.087311
v 1.766169 0.182298 3.123311
v 1.802169 0.182298 3.087311
v 1.766169 -0.401590 3.087311
v 1.802169 -0.365590 3.087311
v 1.766169 -0.365590 3.123311
v 1.777957 -0.401590 7.134649
v 1.813806 -0.365590 7.137936
v 1.774670 -0.365590 7.170499
v 1.777957 0.218298 7.134649
v 1.774670 0.182298 7.170499
v 1.813806 0.182298 7.137936
v 1.857083 -0.365590 6.665847
v 1.821233 -0.401590 6.662560
v 1.824520 -0.365590 6.626711
v 1.824520 0.182298 6.626711
v 1.821233 0.218298 6.662560
v 1.857083 0.182298 6.665847
v -3.515300 -0.365590 6.685562
v -3.547863 -0.365590 6.646426
v -3.512013 -0.401590 6.649713
v -3.512013 0.218298 6.649713
v -3.547863 0.182298 6.646426
v -3.515300 0.182298 6.685562
v -3.468736 -0.401590 6.177624
v -3.504586 -0.365590 6.174337
v -3.465450 -0.365590 6.141774
v -3.465450 0.182298 6.141774
v -3.504586 0.182298 6.174337
v -3.468736 0.218298 6.177624
vt 0.882980 0.621591
vt 0.934287 0.621591
vt 0.934287 0.870596
vt 0.882980 0.870596
vt 0.991452 0.992324
vt 0.896429 0.992324
vt 0.896429 0.882505
vt 0.991452 0.882505
vt 0.838536 0.007656
vt 0.838536 0.601942
vt 0.703334 0.601942
vt 0.703334 0.007656
vt 0.993388 0.870596
vt 0.942080 0.870596
vt 0.942080 0.621591
vt 0.993388 0.621591
vt 0.875187 0.621591
vt 0.875187 0.870596
vt 0.815890 0.870596
vt 0.815890 0.621591
vt 0.057759 0.008080
vt 0.064736 0.530605
vt 0.010844 0.531325
vt 0.003866 0.008800
vt 0.683610 0.483489
vt 0.683610 0.012612
vt 0.984359 0.012605
vt 0.984359 0.483482
vt 0.688167 0.485436
vt 0.688167 0.014558
vt 0.988916 0.014565
vt 0.988916 0.485442
vt 0.539572 0.037876
vt 0.688686 0.009533
vt 0.688686 0.602849
vt 0.539572 0.631193
vt 0.988386 0.601942
vt 0.853184 0.601942
vt 0.853184 0.007656
vt 0.988386 0.007656
vt 0.524924 0.631193
vt 0.375811 0.602849
vt 0.375810 0.009533
vt 0.524923 0.037876
vt 0.682959 0.485442
vt 0.682959 0.014564
vt 0.983708 0.014558
vt 0.983708 0.485436
vt 0.988916 0.012612
vt 0.988916 0.483489
vt 0.688167 0.483483
vt 0.688167 0.012605
vt 0.130375 0.009166
vt 0.177165 0.009421
vt 0.174312 0.533719
vt 0.127523 0.533464
vt 0.808097 0.621591
vt 0.808097 0.870596
vt 0.748800 0.870597
vt 0.748800 0.621591
vt 0.991452 0.993180
vt 0.896429 0.993180
vt 0.896429 0.883360
vt 0.991452 0.883360
vt 0.072236 0.007844
vt 0.119240 0.007877
vt 0.118875 0.534573
vt 0.071872 0.534541
vt 0.184487 0.009717
vt 0.231534 0.009892
vt 0.229575 0.537075
vt 0.182528 0.536900
vt 0.250293 0.009588
vt 0.296619 0.010289
vt 0.288770 0.529391
vt 0.242444 0.528690
vt 0.879083 0.621591
vt 0.882980 0.619904
vt 0.998668 0.993180
vt 0.991452 1.000396
vt 0.889213 0.883360
vt 0.896429 0.876144
vt 0.896429 1.000396
vt 0.889213 0.993180
vt 0.889213 0.882505
vt 0.896429 0.875289
vt 0.896429 0.999540
vt 0.889213 0.992324
vt 0.010891 0.534866
vt 0.007303 0.531372
vt 0.068277 0.530558
vt 0.064784 0.534146
vt 0.667318 0.037391
vt 0.683610 0.009104
vt 0.845860 0.602513
vt 0.838536 0.603534
vt 0.703334 0.603534
vt 0.696010 0.602513
vt 0.537016 0.633069
vt 0.532248 0.633070
vt 0.373255 0.603754
vt 0.368487 0.601942
vt 0.988386 0.007438
vt 0.995710 0.009196
vt 0.845860 0.009196
vt 0.853184 0.007438
vt 1.000651 0.492652
vt 0.984359 0.509090
vt 0.666667 0.039343
vt 0.682959 0.011057
vt 1.000000 0.494605
vt 0.983708 0.511043
vt 0.811993 0.870596
vt 0.808097 0.872284
vt 0.991452 0.875289
vt 0.998668 0.882505
vt 0.875187 0.619904
vt 0.811993 0.621591
vt 0.815890 0.619904
vt 0.938184 0.621591
vt 0.942080 0.619904
vt 0.879083 0.870596
vt 0.875187 0.872284
vt 0.991452 0.876144
vt 0.998668 0.883360
vt 0.815890 0.872284
vt 0.993388 0.619904
vt 0.997284 0.621591
vt 0.177184 0.005868
vt 0.180718 0.009440
vt 0.127503 0.537017
vt 0.123970 0.533445
vt 0.998668 0.992324
vt 0.991452 0.999540
vt 0.997284 0.870596
vt 0.993388 0.872284
vt 0.182515 0.540472
vt 0.178956 0.536887
vt 0.744904 0.621591
vt 0.748800 0.619904
vt 0.292288 0.529444
vt 0.288717 0.532908
vt 0.942080 0.872284
vt 0.938184 0.870596
vt 0.934287 0.872284
vt 0.808097 0.619904
vt 0.934287 0.619904
vt 0.003819 0.005259
vt 0.057712 0.004539
vt 0.882980 0.872284
vt 0.532247 0.038783
vt 0.703334 0.007438
vt 0.838536 0.007438
vt 0.667318 0.492660
vt 0.988916 0.511050
vt 0.688167 0.511044
vt 0.373254 0.007657
vt 0.527479 0.036972
vt 1.005208 0.039343
vt 1.005208 0.494613
vt 0.691242 0.603754
vt 0.995710 0.602513
vt 0.683610 0.509097
vt 0.666667 0.494612
vt 0.688167 -0.013003
vt 0.988916 -0.012996
vt 0.671875 0.458704
vt 0.671875 0.003434
vt 0.682959 0.511050
vt 0.068302 0.534538
vt 0.068667 0.007842
vt 0.122809 0.007879
vt 0.122445 0.534576
vt 0.072239 0.004275
vt 0.119242 0.004307
vt 0.118873 0.538143
vt 0.071869 0.538110
vt 0.174293 0.537272
vt 0.130395 0.005613
vt 0.126822 0.009147
vt 0.177866 0.533738
vt 0.229562 0.540647
vt 0.180914 0.009703
vt 0.184500 0.006144
vt 0.231547 0.006319
vt 0.235107 0.009905
vt 0.233148 0.537088
vt 0.300136 0.010342
vt 0.238926 0.528637
vt 0.246775 0.009535
vt 0.242391 0.532208
vt 0.250346 0.006070
vt 0.296672 0.006771
vn -0.196200 -0.341600 -0.919100
vn -0.196200 0.341600 -0.919100
vn 0.478000 0.341600 -0.809200
vn 0.478000 -0.341600 -0.809200
vn 0.809200 0.341600 0.478000
vn 0.809200 -0.341600 0.478000
vn 0.919100 -0.341600 -0.196200
vn 0.919100 0.341600 -0.196200
vn 0.445300 -0.721500 -0.530100
vn 0.349400 -0.925700 0.144500
vn -0.349400 -0.925700 0.144500
vn -0.445300 -0.721500 -0.530100
vn 0.196200 -0.341600 0.919100
vn 0.196200 0.341600 0.919100
vn -0.478000 0.341600 0.809200
vn -0.478000 -0.341600 0.809200
vn 0.282100 -0.875600 0.392100
vn -0.392100 -0.875600 0.282100
vn -0.282100 -0.875600 -0.392100
vn 0.392100 -0.875600 -0.282100
vn -0.392100 0.875600 0.282100
vn 0.282100 0.875600 0.392100
vn 0.392100 0.875600 -0.282100
vn -0.282100 0.875600 -0.392100
vn 0.349400 0.796800 -0.492900
vn 0.445300 0.202600 -0.872100
vn -0.445300 0.202600 -0.872100
vn -0.349400 0.796800 -0.492900
vn 0.440000 -0.712900 -0.545900
vn 0.350600 -0.927900 0.126200
vn -0.348100 -0.927900 0.133000
vn -0.450500 -0.712900 -0.537300
vn 0.349400 -0.796800 0.492900
vn 0.445300 -0.202600 0.872100
vn -0.445300 -0.202600 0.872100
vn -0.349400 -0.796800 0.492900
vn -0.881400 -0.443000 0.163900
vn -0.957200 0.100400 0.271400
vn -0.881400 0.443000 -0.163900
vn -0.957200 -0.100400 -0.271400
vn 0.349400 0.925700 -0.144500
vn -0.349400 0.925700 -0.144500
vn -0.445300 0.721500 0.530100
vn 0.445300 0.721500 0.530100
vn 0.957200 -0.100400 -0.271400
vn 0.881400 0.443000 -0.163900
vn 0.957200 0.100400 0.271400
vn 0.881400 -0.443000 0.163900
vn 0.344700 0.804700 -0.483400
vn 0.436800 0.216600 -0.873000
vn -0.453700 0.216600 -0.864400
vn -0.354000 0.804700 -0.476600
vn 0.341600 -0.875600 -0.341600
vn 0.341600 -0.875600 0.341600
vn -0.341600 -0.875600 0.341600
vn -0.341600 -0.875600 -0.341600
vn 0.354000 -0.804700 0.476600
vn 0.453700 -0.216600 0.864400
vn -0.436800 -0.216600 0.873000
vn -0.344700 -0.804700 0.483400
vn -0.879800 -0.445600 0.165300
vn -0.954500 0.096000 0.282300
vn -0.882800 0.445600 -0.148200
vn -0.959800 -0.096000 -0.263700
vn 0.348100 0.927900 -0.133000
vn -0.350600 0.927900 -0.126200
vn -0.440000 0.712900 0.545900
vn 0.450500 0.712900 0.537300
vn 0.954500 -0.096000 -0.282300
vn 0.879800 0.445600 -0.165300
vn 0.959800 0.096000 0.263700
vn 0.882800 -0.445600 0.148200
vn 0.341600 -0.341600 -0.875600
vn -0.341600 -0.341600 -0.875600
vn -0.341600 0.341600 -0.875600
vn 0.341600 0.341600 -0.875600
vn 0.875600 -0.341600 0.341600
vn 0.875600 -0.341600 -0.341600
vn 0.875600 0.341600 -0.341600
vn 0.875600 0.341600 0.341600
vn -0.341600 0.875600 -0.341600
vn -0.341600 0.875600 0.341600
vn 0.341600 0.875600 0.341600
vn 0.341600 0.875600 -0.341600
vn -0.341600 -0.341600 0.875600
vn 0.341600 -0.341600 0.875600
vn 0.341600 0.341600 0.875600
vn -0.341600 0.341600 0.875600
vn -0.875600 -0.341600 -0.341600
vn -0.875600 -0.341600 0.341600
vn -0.875600 0.341600 0.341600
vn -0.875600 0.341600 -0.341600
vn 0.373500 -0.875600 -0.306300
vn 0.306300 -0.875600 0.373500
vn -0.373500 -0.875600 0.306300
vn -0.306300 -0.875600 -0.373500
vn 0.837700 -0.341600 0.426000
vn 0.904900 -0.341600 -0.253800
vn 0.904900 0.341600 -0.253800
vn 0.837700 0.341600 0.426000
vn -0.306300 0.875600 -0.373500
vn -0.373500 0.875600 0.306300
vn 0.306300 0.875600 0.373500
vn 0.373500 0.875600 -0.306300
vn -0.837700 -0.341600 -0.426000
vn -0.904900 -0.341600 0.253800
vn -0.904900 0.341600 0.253800
vn -0.837700 0.341600 -0.426000
vn -0.426000 -0.341600 0.837700
vn 0.253800 -0.341600 0.904900
vn 0.253800 0.341600 0.904900
vn -0.426000 0.341600 0.837700
vn 0.426000 -0.341600 -0.837700
vn -0.253800 -0.341600 -0.904900
vn -0.253800 0.341600 -0.904900
vn 0.426000 0.341600 -0.837700
vn -0.420100 -0.341600 0.840700
vn 0.260200 -0.341600 0.903100
vn 0.260200 0.341600 0.903100
vn -0.420100 0.341600 0.840700
vn 0.371300 -0.875600 -0.309000
vn 0.309000 -0.875600 0.371300
vn -0.371300 -0.875600 0.309000
vn -0.309000 -0.875600 -0.371300
vn -0.309000 0.875600 -0.371300
vn -0.371300 0.875600 0.309000
vn 0.309000 0.875600 0.371300
vn 0.371300 0.875600 -0.309000
vn -0.840700 -0.341600 -0.420100
vn -0.903100 -0.341600 0.260200
vn -0.903100 0.341600 0.260200
vn -0.840700 0.341600 -0.420100
vn 0.420100 -0.341600 -0.840700
vn -0.260200 -0.341600 -0.903100
vn -0.260200 0.341600 -0.903100
vn 0.420100 0.341600 -0.840700
vn 0.840700 -0.341600 0.420100
vn 0.903100 -0.341600 -0.260200
vn 0.903100 0.341600 -0.260200
vn 0.840700 0.341600 0.420100
vn -0.809200 -0.341600 -0.478000
vn -0.919100 -0.341600 0.196200
vn -0.809200 0.341600 -0.478000
vn -0.919100 0.341600 0.196200
usemtl main
s 1
f 1/1/1 9/2/2 21/3/3 15/4/4
usemtl main_Без_имени
f 24/5/5 16/6/6 13/7/7 20/8/8
usemtl main
f 27/9/9 28/10/10 31/11/11 36/12/12
f 17/13/13 23/14/14 11/15/15 6/16/16
f 18/17/17 5/18/18 2/19/19 14/20/20
f 12/21/21 22/22/22 19/23/23 8/24/24
f 38/25/25 25/26/26 35/27/27 46/28/28
usemtl main_texture.png
f 51/9/29 52/10/30 55/11/31 60/12/32
usemtl main
f 30/29/33 41/30/34 45/31/35 32/32/36
f 33/33/37 44/34/38 47/35/39 34/36/40
f 39/37/41 48/38/42 43/39/43 40/40/44
f 26/41/45 37/42/46 42/43/47 29/44/48
usemtl main_texture.png
f 62/45/49 49/46/50 59/47/51 70/48/52
usemtl main
f 81/13/53 74/14/54 85/15/55 92/16/56
usemtl main_texture.png
f 54/49/57 65/50/58 69/51/59 56/52/60
f 57/33/61 68/34/62 71/35/63 58/36/64
f 63/37/65 72/38/66 67/39/67 64/40/68
f 50/41/69 61/42/70 66/43/71 53/44/72
usemtl main
f 79/17/73 91/18/74 96/19/75 82/20/76
usemtl main_Без_имени
f 75/5/77 80/6/78 84/7/79 76/8/80
usemtl main
f 99/53/81 103/54/82 116/55/83 109/56/84
f 86/57/85 73/58/86 78/59/87 89/60/88
usemtl main_Без_имени
f 93/61/89 87/62/90 88/63/91 94/64/92
usemtl main
f 95/65/81 90/66/82 77/67/83 83/68/84
usemtl main_Без_имени
f 101/61/89 108/62/90 104/63/91 98/64/92
f 118/5/77 112/6/78 110/7/79 115/8/80
usemtl main
f 114/17/73 102/18/74 97/19/75 111/20/76
f 127/13/93 123/14/94 133/15/95 140/16/96
f 107/57/85 119/58/86 117/59/87 105/60/88
f 113/13/53 120/14/54 106/15/55 100/16/56
usemtl main_Без_имени
f 121/5/97 129/6/98 131/7/99 124/8/100
usemtl main
f 144/69/101 138/70/102 125/71/103 130/72/104
usemtl main_Без_имени
f 141/61/105 135/62/106 136/63/107 143/64/108
usemtl main
f 162/17/73 149/18/74 147/19/75 157/20/76
f 134/57/109 122/58/110 126/59/111 137/60/112
f 128/17/113 139/18/114 142/19/115 132/20/116
f 181/57/117 171/58/118 173/59/119 186/60/120
usemtl main_Без_имени
f 167/5/77 160/6/78 159/7/79 165/8/80
usemtl main
f 156/57/85 168/58/86 164/59/87 151/60/88
f 161/13/53 166/14/54 155/15/55 150/16/56
f 146/73/81 152/74/82 163/75/83 158/76/84
usemtl main_Без_имени
f 148/61/89 154/62/90 153/63/91 145/64/92
usemtl main
f 176/13/121 169/14/122 183/15/123 187/16/124
f 192/1/125 184/2/126 172/3/127 179/4/128
usemtl main_Без_имени
f 188/61/129 182/62/130 185/63/131 191/64/132
usemtl main
f 177/17/133 189/18/134 190/19/135 178/20/136
usemtl main_Без_имени
f 170/5/137 175/6/138 180/7/139 174/8/140
usemtl main
f 1/1/1 2/77/19 3/78/141
usemtl main_Без_имени
f 4/61/142 5/79/18 6/80/16
f 7/63/143 8/81/24 9/82/2
f 10/62/144 11/83/15 12/84/21
f 13/7/7 14/85/20 15/86/4
f 16/6/6 17/87/13 18/88/17
usemtl main
f 19/23/23 20/89/8 21/90/3
f 22/22/22 23/91/14 24/92/5
f 25/26/26 26/93/45 27/94/9
f 28/10/10 29/95/48 30/96/33
f 31/11/11 32/97/36 33/98/37
f 34/36/40 35/99/27 36/100/12
f 37/42/46 38/101/25 39/102/41
f 40/40/44 41/103/34 42/104/47
f 43/39/43 44/105/38 45/106/35
f 46/28/28 47/107/39 48/108/42
usemtl main_texture.png
f 49/46/50 50/109/69 51/110/29
f 52/10/30 53/95/72 54/96/57
f 55/11/31 56/97/60 57/98/61
f 58/36/64 59/99/51 60/100/32
f 61/42/70 62/101/49 63/102/65
f 64/40/68 65/103/58 66/104/71
f 67/39/67 68/105/62 69/106/59
f 70/48/52 71/111/63 72/112/66
usemtl main
f 73/58/86 74/113/54 75/114/77
usemtl main_Без_имени
f 76/8/80 77/115/83 78/116/87
usemtl main
f 79/17/73 80/117/78 81/77/53
f 82/20/76 83/118/84 84/119/79
f 85/15/55 86/120/85 87/121/90
usemtl main_Без_имени
f 88/63/91 89/81/88 90/82/82
usemtl main
f 91/18/74 92/122/56 93/123/89
usemtl main_Без_имени
f 94/64/92 95/124/81 96/125/75
usemtl main
f 97/19/75 98/126/92 99/113/81
f 100/16/56 101/127/89 102/128/74
f 103/54/82 104/129/91 105/130/88
f 106/15/55 107/120/85 108/121/90
f 109/56/84 110/131/79 111/132/76
usemtl main_Без_имени
f 112/6/78 113/87/53 114/88/73
f 115/8/80 116/115/83 117/116/87
f 118/5/77 119/133/86 120/134/54
f 121/5/97 122/133/110 123/134/94
f 124/8/100 125/115/103 126/116/111
usemtl main
f 127/13/93 128/135/113 129/136/98
f 130/72/104 131/137/99 132/138/116
f 133/15/95 134/120/109 135/121/106
usemtl main_Без_имени
f 136/63/107 137/81/112 138/82/102
usemtl main
f 139/18/114 140/122/96 141/123/105
f 142/19/115 143/126/108 144/113/101
usemtl main_Без_имени
f 145/64/92 146/124/81 147/125/75
f 148/61/89 149/79/74 150/80/56
usemtl main
f 151/60/88 152/139/82 153/140/91
usemtl main_Без_имени
f 154/62/90 155/83/55 156/84/85
usemtl main
f 157/20/76 158/118/84 159/119/79
usemtl main_Без_имени
f 160/6/78 161/87/53 162/88/73
usemtl main
f 163/75/83 164/141/87 165/142/80
f 166/14/54 167/143/77 168/144/86
f 169/14/122 170/143/137 171/144/118
f 172/3/127 173/144/119 174/145/140
usemtl main_Без_имени
f 175/6/138 176/87/121 177/88/133
usemtl main
f 178/20/136 179/118/128 180/119/139
f 181/57/117 182/146/130 183/118/123
f 184/2/126 185/147/131 186/120/120
f 187/16/124 188/127/129 189/128/134
f 190/19/135 191/126/132 192/113/125
f 2/19/19 5/18/18 4/123/142 3/126/141
f 6/16/16 11/15/15 10/121/144 4/127/142
f 12/21/21 8/24/24 7/148/143 10/149/144
f 9/2/2 1/1/1 3/78/141 7/147/143
f 11/15/15 23/14/14 22/144/22 12/120/21
usemtl main_Без_имени
f 24/5/5 20/8/8 19/116/23 22/133/22
usemtl main
f 21/3/3 9/2/2 8/120/24 19/144/23
f 23/14/14 17/13/13 16/136/6 24/143/5
f 18/17/17 14/20/20 13/119/7 16/117/6
f 15/4/4 21/3/3 20/145/8 13/150/7
f 17/13/13 6/16/16 5/128/18 18/135/17
f 1/1/1 15/4/4 14/122/20 2/77/19
f 26/41/45 29/44/48 28/151/10 27/100/9
f 27/9/9 36/12/12 35/152/27 25/153/26
f 25/26/26 38/25/25 37/154/46 26/93/45
f 30/29/33 32/32/36 31/155/11 28/156/10
f 29/44/48 42/43/47 41/157/34 30/158/33
f 33/33/37 34/36/40 36/100/12 31/151/11
f 32/32/36 45/31/35 44/159/38 33/160/37
f 34/36/40 47/35/39 46/161/28 35/99/27
f 39/37/41 40/40/44 42/104/47 37/162/46
f 38/25/25 46/28/28 48/108/42 39/163/41
f 40/40/44 43/39/43 45/106/35 41/103/34
f 43/39/43 48/38/42 47/95/39 44/105/38
usemtl main_texture.png
f 50/41/69 53/44/72 52/151/30 51/100/29
f 51/9/29 60/12/32 59/152/51 49/153/50
f 49/46/50 62/45/49 61/164/70 50/109/69
f 54/49/57 56/52/60 55/165/31 52/166/30
f 53/44/72 66/43/71 65/157/58 54/158/57
f 57/33/61 58/36/64 60/100/32 55/151/31
f 56/52/60 69/51/59 68/167/62 57/168/61
f 58/36/64 71/35/63 70/161/52 59/99/51
f 63/37/65 64/40/68 66/104/71 61/162/70
f 62/45/49 70/48/52 72/112/66 63/169/65
f 64/40/68 67/39/67 69/106/59 65/103/58
f 67/39/67 72/38/66 71/95/63 68/105/62
usemtl main
f 95/65/81 83/68/84 82/170/76 96/171/75
f 79/17/73 82/20/76 84/119/79 80/117/78
f 77/67/83 90/66/82 89/172/88 78/173/87
f 81/13/53 92/16/56 91/128/74 79/135/73
f 85/15/55 74/14/54 73/144/86 86/120/85
f 96/19/75 91/18/74 93/123/89 94/126/92
usemtl main_Без_имени
f 75/5/77 76/8/80 78/116/87 73/133/86
usemtl main
f 92/16/56 85/15/55 87/121/90 93/127/89
f 90/66/82 95/65/81 94/174/92 88/175/91
f 86/57/85 89/60/88 88/140/91 87/146/90
f 74/14/54 81/13/53 80/136/78 75/143/77
f 83/68/84 77/67/83 76/176/80 84/177/79
f 109/56/84 116/55/83 115/178/80 110/131/79
f 103/54/82 99/53/81 98/179/92 104/129/91
usemtl main_Без_имени
f 118/5/77 115/8/80 117/116/87 119/133/86
usemtl main
f 120/14/54 113/13/53 112/136/78 118/143/77
f 106/15/55 120/14/54 119/144/86 107/120/85
f 99/53/81 109/56/84 111/132/76 97/180/75
f 97/19/75 102/18/74 101/123/89 98/126/92
f 114/17/73 111/20/76 110/119/79 112/117/78
f 113/13/53 100/16/56 102/128/74 114/135/73
f 116/55/83 103/54/82 105/130/88 117/181/87
f 100/16/56 106/15/55 108/121/90 101/127/89
f 107/57/85 105/60/88 104/140/91 108/146/90
f 134/57/109 137/60/112 136/140/107 135/146/106
f 127/13/93 140/16/96 139/128/114 128/135/113
f 142/19/115 139/18/114 141/123/105 143/126/108
f 140/16/96 133/15/95 135/121/106 141/127/105
f 133/15/95 123/14/94 122/144/110 134/120/109
f 130/72/104 125/71/103 124/182/100 131/137/99
f 144/69/101 130/72/104 132/138/116 142/183/115
f 138/70/102 144/69/101 143/184/108 136/185/107
f 123/14/94 127/13/93 129/136/98 121/143/97
usemtl main_Без_имени
f 121/5/97 124/8/100 126/116/111 122/133/110
usemtl main
f 128/17/113 132/20/116 131/119/99 129/117/98
f 125/71/103 138/70/102 137/186/112 126/187/111
f 163/75/83 152/74/82 151/188/88 164/141/87
f 166/14/54 161/13/53 160/136/78 167/143/77
f 146/73/81 158/76/84 157/189/76 147/190/75
f 162/17/73 157/20/76 159/119/79 160/117/78
f 155/15/55 166/14/54 168/144/86 156/120/85
f 156/57/85 151/60/88 153/140/91 154/146/90
f 158/76/84 163/75/83 165/142/80 159/191/79
f 161/13/53 150/16/56 149/128/74 162/135/73
f 150/16/56 155/15/55 154/121/90 148/127/89
f 147/19/75 149/18/74 148/123/89 145/126/92
f 152/74/82 146/73/81 145/192/92 153/193/91
usemtl main_Без_имени
f 167/5/77 165/8/80 164/116/87 168/133/86
f 170/5/137 174/8/140 173/116/119 171/133/118
usemtl main
f 187/16/124 183/15/123 182/121/130 188/127/129
f 179/4/128 172/3/127 174/145/140 180/150/139
f 184/2/126 192/1/125 191/78/132 185/147/131
f 183/15/123 169/14/122 171/144/118 181/120/117
f 172/3/127 184/2/126 186/120/120 173/144/119
f 181/57/117 186/60/120 185/140/131 182/146/130
f 169/14/122 176/13/121 175/136/138 170/143/137
f 177/17/133 178/20/136 180/119/139 175/117/138
f 192/1/125 179/4/128 178/122/136 190/77/135
f 176/13/121 187/16/124 189/128/134 177/135/133
f 190/19/135 189/18/134 188/123/129 191/126/132
usemtl main_Без_имени
f 4/61/142 10/62/144 7/63/143 3/64/141
