# Blender 3.5.1
# www.blender.org
mtllib pole.mtl
o internal_part.001
v 0.000000 -7.735772 0.688077
v 0.496674 -7.735772 0.486544
v 0.702404 -7.735772 -0.000001
v 0.496674 -7.735772 -0.486545
v 0.000000 -7.735772 -0.688079
v -0.496674 -7.735772 -0.486545
v -0.702404 -7.735772 -0.000001
v -0.496674 -7.735772 0.486544
v 0.000000 8.037694 0.582453
v 0.000000 6.919169 0.688079
v 0.420431 8.037694 0.411856
v 0.496674 6.919169 0.486545
v 0.594579 8.037694 0.000001
v 0.702404 6.919169 0.000001
v 0.420431 8.037694 -0.411855
v 0.496674 6.919169 -0.486544
v -0.000000 8.037694 -0.582451
v 0.000000 6.919169 -0.688077
v -0.420431 8.037694 -0.411855
v -0.496674 6.919169 -0.486544
v -0.594579 8.037694 0.000001
v -0.702404 6.919169 0.000001
v -0.420431 8.037694 0.411856
v -0.496674 6.919169 0.486545
vn -0.3760 -0.0000 0.9266
vn 0.9210 -0.0000 -0.3895
vn 0.3760 -0.0000 -0.9266
vn -0.3760 -0.0000 -0.9266
vn -0.9210 -0.0000 -0.3895
vn -0.9210 -0.0000 0.3895
vn -0.0000 -1.0000 -0.0000
vn 0.9210 -0.0000 0.3895
vn 0.3760 -0.0000 0.9266
vn 0.3746 0.0872 0.9231
vn 0.9174 0.0884 0.3879
vn 0.9174 0.0884 -0.3879
vn 0.3746 0.0872 -0.9231
vn -0.3746 0.0872 -0.9231
vn -0.9174 0.0884 -0.3879
vn -0.9174 0.0884 0.3879
vn -0.3746 0.0872 0.9231
vn -0.0000 1.0000 -0.0000
vt 0.000000 1.000000
vt 0.250000 0.490000
vt 1.000000 1.000000
vt 0.419706 0.419706
vt 0.875000 1.000000
vt 0.490000 0.250000
vt 0.750000 1.000000
vt 0.625000 1.000000
vt 0.419706 0.080294
vt 0.500000 1.000000
vt 0.250000 0.010000
vt 0.375000 1.000000
vt 0.080294 0.080294
vt 0.250000 1.000000
vt 0.010000 0.250000
vt 0.125000 1.000000
vt 0.080294 0.419706
vt 0.750000 0.453158
vt 1.000000 0.535456
vt 0.000000 0.535456
vt 0.750000 0.490000
vt 0.893654 0.393654
vt 0.875000 0.535456
vt 0.919706 0.419706
vt 0.953158 0.250000
vt 0.750000 0.535456
vt 0.990000 0.250000
vt 0.893654 0.106346
vt 0.625000 0.535456
vt 0.919706 0.080294
vt 0.750000 0.046842
vt 0.500000 0.535456
vt 0.750000 0.010000
vt 0.606346 0.106346
vt 0.375000 0.535456
vt 0.580294 0.080294
vt 0.546842 0.250000
vt 0.250000 0.535456
vt 0.510000 0.250000
vt 0.606346 0.393654
vt 0.125000 0.535456
vt 0.580294 0.419706
s 0
usemtl Material.001
f 8/16/1 10/20/1 24/41/1
f 3/7/2 16/29/2 14/26/2
f 4/8/3 18/32/3 16/29/3
f 5/10/4 20/35/4 18/32/4
f 6/12/5 22/38/5 20/35/5
f 7/14/6 24/41/6 22/38/6
f 7/15/7 5/11/7 3/6/7
f 2/5/8 14/26/8 12/23/8
f 1/3/9 12/23/9 10/19/9
f 12/24/10 9/18/10 10/21/10
f 14/27/11 11/22/11 12/24/11
f 16/30/12 13/25/12 14/27/12
f 18/33/13 15/28/13 16/30/13
f 20/36/14 17/31/14 18/33/14
f 22/39/15 19/34/15 20/36/15
f 24/42/16 21/37/16 22/39/16
f 10/21/17 23/40/17 24/42/17
f 15/28/18 19/34/18 23/40/18
f 8/16/1 1/1/1 10/20/1
f 3/7/2 4/8/2 16/29/2
f 4/8/3 5/10/3 18/32/3
f 5/10/4 6/12/4 20/35/4
f 6/12/5 7/14/5 22/38/5
f 7/14/6 8/16/6 24/41/6
f 3/6/7 2/4/7 1/2/7
f 1/2/7 8/17/7 7/15/7
f 7/15/7 6/13/7 5/11/7
f 5/11/7 4/9/7 3/6/7
f 3/6/7 1/2/7 7/15/7
f 2/5/8 3/7/8 14/26/8
f 1/3/9 2/5/9 12/23/9
f 12/24/10 11/22/10 9/18/10
f 14/27/11 13/25/11 11/22/11
f 16/30/12 15/28/12 13/25/12
f 18/33/13 17/31/13 15/28/13
f 20/36/14 19/34/14 17/31/14
f 22/39/15 21/37/15 19/34/15
f 24/42/16 23/40/16 21/37/16
f 10/21/17 9/18/17 23/40/17
f 23/40/18 9/18/18 11/22/18
f 11/22/18 13/25/18 15/28/18
f 15/28/18 17/31/18 19/34/18
f 19/34/18 21/37/18 23/40/18
f 23/40/18 11/22/18 15/28/18
